# xmcd
#
# Track frame offsets:
#	150
#	25905
#	50281
#	87496
#	92299
#	131431
#	158767
#	162061
#	166337
#	195800
#	227401
#	273780
#	302490
#
# Disc length: 4427 seconds
#
# Revision: 3
# Processed by: cddbd v1.5.1PL0 Copyright (c) Steve Scherf et al.
# Submitted via: EasyCDDAExtractor 8.0.2.1
#
DISCID=8611490d
DTITLE=Black Sabbath - Glen Helen Pavillion San Bernardino 20-08-05 Upgrade
DYEAR=2005
DGENRE=Hard Rock
TTITLE0=NIB
TTITLE1=After Forever
TTITLE2=War Pigs
TTITLE3=Band Introductions
TTITLE4=Dirty Women
TTITLE5=Fairies Wear Boots
TTITLE6=Symptom Of The Universe
TTITLE7=Sweet Leaf
TTITLE8=Electric Funeral
TTITLE9=Iron Man
TTITLE10=Black Sabbath
TTITLE11=Paranoid
TTITLE12=Children Of The Grave
EXTD=
EXTT0=
EXTT1=
EXTT2=
EXTT3=
EXTT4=
EXTT5=
EXTT6=
EXTT7=
EXTT8=
EXTT9=
EXTT10=
EXTT11=
EXTT12=
PLAYORDER=
